HIERARCHY
ROOT Hips
{
	OFFSET 53.088200 -36.769417 95.272491
	CHANNELS 6 Xposition Yposition Zposition Xrotation Yrotation Zrotation
	JOINT spine
	{
		OFFSET 0.000000 -0.458069 7.965683
		CHANNELS 3 Xrotation Yrotation Zrotation
		JOINT spine1
		{
			OFFSET 0.000000 -0.000004 10.243103
			CHANNELS 3 Xrotation Yrotation Zrotation
			JOINT spine2
			{
				OFFSET 0.000000 0.000000 9.814751
				CHANNELS 3 Xrotation Yrotation Zrotation
				JOINT Neck
				{
					OFFSET 0.000000 -1.201385 25.198601
					CHANNELS 3 Xrotation Yrotation Zrotation
					JOINT Head
					{
						OFFSET 0.000000 -0.000004 7.613144
						CHANNELS 3 Xrotation Yrotation Zrotation
						End Site
						{
							OFFSET 0.000000 6.077332 18.428101
						}
					}
				}
				JOINT RightShoulder
				{
					OFFSET -4.132702 0.575447 10.599205
					CHANNELS 3 Xrotation Yrotation Zrotation
					JOINT RightArm
					{
						OFFSET 0.000000 0.000000 13.901794
						CHANNELS 3 Xrotation Yrotation Zrotation
						JOINT RightArmRoll
						{
							OFFSET 0.000000 -0.000004 7.017883
							CHANNELS 3 Xrotation Yrotation Zrotation
							JOINT RightForeArm
							{
								OFFSET 0.000000 0.000000 20.440598
								CHANNELS 3 Xrotation Yrotation Zrotation
								JOINT RightForeArmRoll
								{
									OFFSET 0.000000 -0.000004 7.875153
									CHANNELS 3 Xrotation Yrotation Zrotation
									JOINT RightHand
									{
										OFFSET 0.000000 0.000000 15.803696
										CHANNELS 3 Xrotation Yrotation Zrotation
										End Site
										{
											OFFSET 0.000000 -0.000004 0.100006
										}
									}
								}
							}
						}
					}
				}
				JOINT LeftShoulder
				{
					OFFSET 4.132702 0.575447 10.599205
					CHANNELS 3 Xrotation Yrotation Zrotation
					JOINT LeftArm
					{
						OFFSET 0.000000 0.000000 13.901794
						CHANNELS 3 Xrotation Yrotation Zrotation
						JOINT LeftArmRoll
						{
							OFFSET 0.000000 -0.000004 7.017883
							CHANNELS 3 Xrotation Yrotation Zrotation
							JOINT LeftForeArm
							{
								OFFSET 0.000000 0.000000 20.440598
								CHANNELS 3 Xrotation Yrotation Zrotation
								JOINT LeftForeArmRoll
								{
									OFFSET 0.000000 -0.000004 7.875153
									CHANNELS 3 Xrotation Yrotation Zrotation
									JOINT LeftHand
									{
										OFFSET 0.000000 0.000000 15.803696
										CHANNELS 3 Xrotation Yrotation Zrotation
										End Site
										{
											OFFSET 0.000000 -0.000004 0.100006
										}
									}
								}
							}
						}
					}
				}
			}
		}
	}
	JOINT RightUpLeg
	{
		OFFSET -7.060482 1.086102 -1.294701
		CHANNELS 3 Xrotation Yrotation Zrotation
		JOINT RightUpLegRoll
		{
			OFFSET 0.000000 -0.000004 18.530800
			CHANNELS 3 Xrotation Yrotation Zrotation
			JOINT RightLeg
			{
				OFFSET 0.000000 0.000004 -22.947601
				CHANNELS 3 Xrotation Yrotation Zrotation
				JOINT RightLegRoll
				{
					OFFSET 0.000000 -0.000004 23.022598
					CHANNELS 3 Xrotation Yrotation Zrotation
					JOINT RightFoot
					{
						OFFSET 0.000000 -0.000004 19.162506
						CHANNELS 3 Xrotation Yrotation Zrotation
						JOINT RightToeBase
						{
							OFFSET 0.000000 0.000000 16.018799
							CHANNELS 3 Xrotation Yrotation Zrotation
							End Site
							{
								OFFSET 0.006790 0.894203 7.757812
							}
						}
					}
				}
			}
		}
	}
	JOINT LeftUpLeg
	{
		OFFSET 7.060482 1.086102 -1.294701
		CHANNELS 3 Xrotation Yrotation Zrotation
		JOINT LeftUpLegRoll
		{
			OFFSET 0.000000 -0.000004 18.530899
			CHANNELS 3 Xrotation Yrotation Zrotation
			JOINT LeftLeg
			{
				OFFSET 0.000000 -0.000004 22.947502
				CHANNELS 3 Xrotation Yrotation Zrotation
				JOINT LeftLegRoll
				{
					OFFSET 0.000000 -0.000004 23.235504
					CHANNELS 3 Xrotation Yrotation Zrotation
					JOINT LeftFoot
					{
						OFFSET 0.000000 -0.000004 18.949600
						CHANNELS 3 Xrotation Yrotation Zrotation
						JOINT LeftToeBase
						{
							OFFSET 0.000000 0.000000 16.018799
							CHANNELS 3 Xrotation Yrotation Zrotation
							End Site
							{
								OFFSET -0.030430 0.894203 7.757812
							}
						}
					}
				}
			}
		}
	}
}
MOTION
Frames: 10
Frame Time: 0.041667
55.306595 -45.912914 122.743988 1.179311 3.261711 8.340991 -0.869572 -0.688288 -0.027009 2.263343 -1.376256 -0.067277 3.908620 -1.376961 -0.050784 8.695145 -13.536204 -2.376012 -5.370255 10.434513 -1.871018 -23.857144 -67.791000 -27.919042 6.190316 -95.207011 34.681566 0.000002 0.000002 -0.000002 0.046081 -6.240578 -0.448158 -0.000004 0.000025 -3.052789 -5.000217 -7.999162 -0.000207 6.586993 52.896089 -8.682249 -351.827661 107.281194 325.661043 0.000000 -0.000001 -0.000005 -0.163179 4.022675 0.097162 -0.000005 -0.000003 3.048492 -5.000199 7.999279 0.000203 -3.800720 -174.686651 1.893668 -179.999991 0.000005 -1.239005 164.237513 -5.807722 -1.529069 0.000000 0.000000 0.286619 67.409234 6.867345 2.291834 25.456953 -7.355614 -0.000003 -9.792528 168.889104 -1.578715 -0.000005 -0.000003 -1.086049 -19.286482 1.490859 0.790957 0.000003 0.000002 -0.314186 70.186819 -6.872123 -2.093289 25.456959 7.355624 -0.000005 
55.294994 -45.912308 122.622993 1.154279 3.261399 8.354004 -0.869228 -0.687341 -0.025704 2.264052 -1.374367 -0.063406 3.909327 -1.375034 -0.046936 8.764702 -13.549214 -2.357971 -5.441279 10.443674 -1.853777 -23.886119 -67.741652 -27.953258 6.759653 -95.260785 35.204414 0.000001 0.000003 -0.000001 0.046876 -6.292780 -0.446672 -0.000004 0.000024 -3.052270 -5.000216 -7.999162 -0.000205 6.609619 52.959648 -8.698095 -351.441100 107.260990 325.459853 0.000000 -0.000001 -0.000007 -0.193181 4.255895 0.079071 -0.000005 -0.000006 3.044270 -5.000198 7.999281 0.000204 -3.736610 -174.692238 1.891465 -179.999991 0.000006 -1.240999 164.215916 -5.792661 -1.527194 0.000000 0.000000 0.286137 67.420142 6.867724 2.288629 25.456955 -7.355614 -0.000002 -9.763271 168.875321 -1.564639 -0.000005 -0.000004 -1.086879 -19.327091 1.445485 0.786008 0.000003 0.000002 -0.315742 70.191860 -6.872303 -2.092809 25.456964 7.355622 -0.000002 
55.278194 -45.891506 122.508995 1.131422 3.260685 8.366267 -0.869221 -0.686378 -0.024414 2.264100 -1.372458 -0.059540 3.909364 -1.373069 -0.043097 8.835779 -13.560062 -2.338853 -5.510460 10.451351 -1.835967 -23.914456 -67.691423 -27.986780 7.306818 -95.316034 35.705312 0.000000 0.000005 -0.000001 0.047684 -6.343890 -0.444780 -0.000003 0.000026 -3.051691 -5.000217 -7.999163 -0.000207 6.630410 53.026723 -8.711161 -351.054539 107.239475 325.259182 0.000002 -0.000001 -0.000010 -0.216094 4.488989 0.060889 -0.000005 -0.000005 3.040109 -5.000199 7.999280 0.000202 -3.675359 -174.696869 1.889292 -179.999991 0.000006 -1.241996 164.194333 -5.777593 -1.526302 0.000000 0.000000 0.285639 67.431254 6.868084 2.285508 25.456957 -7.355616 -0.000001 -9.736854 168.862630 -1.550405 -0.000006 -0.000004 -1.087649 -19.368518 1.401020 0.781169 0.000003 0.000002 -0.317322 70.197358 -6.872521 -2.092207 25.456957 7.355620 -0.000001 
55.294697 -45.828506 122.377991 1.111319 3.259618 8.377522 -0.869681 -0.685433 -0.023196 2.263198 -1.370571 -0.055829 3.908471 -1.371145 -0.039408 8.909150 -13.567840 -2.318862 -5.578437 10.457144 -1.817826 -23.941083 -67.641146 -28.018360 7.832296 -95.372438 36.185605 0.000001 0.000003 0.000001 0.048493 -6.393261 -0.442366 -0.000003 0.000026 -3.051051 -5.000217 -7.999162 -0.000208 6.648930 53.097020 -8.720981 -350.668360 107.217632 325.059084 0.000001 -0.000002 -0.000007 -0.229247 4.721252 0.042828 -0.000006 -0.000006 3.036047 -5.000198 7.999282 0.000204 -3.617789 -174.700516 1.887214 -179.999991 0.000005 -1.244004 164.172011 -5.763491 -1.525750 -0.000000 0.000000 0.285138 67.442483 6.868489 2.282289 25.456959 -7.355615 -0.000002 -9.713740 168.850022 -1.536342 -0.000005 -0.000003 -1.088381 -19.410867 1.358115 0.776531 0.000004 0.000002 -0.318910 70.203266 -6.872753 -2.091580 25.456962 7.355624 -0.000003 
55.286697 -45.824615 122.270996 1.094569 3.258306 8.387510 -0.870747 -0.684540 -0.022103 2.261085 -1.368794 -0.052413 3.906359 -1.369323 -0.036014 8.985588 -13.572021 -2.298129 -5.645862 10.460639 -1.799585 -23.964830 -67.591607 -28.046679 8.336885 -95.429655 36.646598 0.000001 0.000002 -0.000003 0.049290 -6.440231 -0.439330 -0.000003 0.000025 -3.050320 -5.000218 -7.999164 -0.000209 6.664768 53.170383 -8.727096 -350.282399 107.195482 324.859151 0.000001 -0.000003 -0.000007 -0.229965 4.951991 0.025044 -0.000004 -0.000009 3.032138 -5.000198 7.999281 0.000203 -3.564762 -174.702210 1.885224 -179.999991 0.000005 -1.245002 164.148611 -5.748388 -1.525020 0.000000 0.000001 0.284651 67.453808 6.868868 2.279158 25.456959 -7.355614 -0.000002 -9.694385 168.837577 -1.522964 -0.000005 -0.000003 -1.089080 -19.453946 1.317425 0.772187 0.000003 0.000003 -0.320501 70.209502 -6.872992 -2.090836 25.456957 7.355622 -0.000002 
55.300896 -45.790710 122.129974 1.081762 3.256801 8.395958 -0.872561 -0.683732 -0.021194 2.257473 -1.367189 -0.049438 3.902745 -1.367682 -0.033058 9.065901 -13.571681 -2.276826 -5.713350 10.461334 -1.781488 -23.984667 -67.543625 -28.070525 8.821439 -95.487233 37.090161 0.000001 0.000005 -0.000001 0.050064 -6.484156 -0.435563 -0.000003 0.000026 -3.049499 -5.000217 -7.999163 -0.000208 6.677445 53.246512 -8.728997 -349.897696 107.174964 324.660010 0.000000 0.000001 -0.000006 -0.215570 5.180506 0.007662 -0.000003 -0.000008 3.028429 -5.000198 7.999282 0.000204 -3.517115 -174.702934 1.883467 -179.999991 0.000005 -1.245999 164.123326 -5.732258 -1.523195 -0.000000 0.000001 0.284188 67.465016 6.869228 2.276131 25.456957 -7.355615 -0.000001 -9.679220 168.825228 -1.510770 -0.000005 -0.000003 -1.089740 -19.497957 1.279591 0.768237 0.000003 0.000003 -0.322080 70.215963 -6.873261 -2.089985 25.456957 7.355624 -0.000002 
55.292698 -45.768711 122.005989 1.073463 3.255180 8.402610 -0.875257 -0.683042 -0.020520 2.252100 -1.365814 -0.047049 3.897371 -1.366284 -0.030685 9.150842 -13.566202 -2.255117 -5.781542 10.458813 -1.763782 -23.999593 -67.498136 -28.088747 9.287156 -95.544743 37.517946 0.000001 0.000003 -0.000000 0.050808 -6.524379 -0.430964 -0.000003 0.000026 -3.048581 -5.000218 -7.999162 -0.000207 6.686539 53.325264 -8.726229 -349.514222 107.156085 324.461306 0.000001 -0.000000 -0.000006 -0.183380 5.406085 -0.009235 -0.000004 -0.000007 3.024969 -5.000199 7.999281 0.000203 -3.475700 -174.700707 1.881858 -179.999991 0.000006 -1.247993 164.095513 -5.717036 -1.522893 0.000000 0.000000 0.283767 67.476019 6.869565 2.273313 25.456957 -7.355615 -0.000002 -9.668730 168.812073 -1.500103 -0.000005 -0.000004 -1.090390 -19.542799 1.245282 0.764781 0.000003 0.000002 -0.323636 70.222534 -6.873534 -2.089125 25.456957 7.355622 -0.000002 
55.309399 -45.735817 121.854988 1.070288 3.253534 8.407189 -0.878966 -0.682504 -0.020137 2.244687 -1.364742 -0.045388 3.889955 -1.365189 -0.029038 9.241221 -13.554761 -2.233200 -5.851073 10.452572 -1.746704 -24.008614 -67.456021 -28.100206 9.734497 -95.602076 37.931309 0.000001 0.000004 0.000000 0.051507 -6.560259 -0.425421 -0.000004 0.000026 -3.047541 -5.000217 -7.999162 -0.000204 6.691600 53.406438 -8.718290 -349.132004 107.138839 324.262684 0.000001 -0.000000 -0.000007 -0.130702 5.628015 -0.025612 -0.000004 -0.000008 3.021810 -5.000198 7.999282 0.000204 -3.441367 -174.696541 1.880540 -179.999991 0.000005 -1.249004 164.064627 -5.699809 -1.523321 0.000001 0.000000 0.283400 67.486709 6.869905 2.270811 25.456953 -7.355615 -0.000002 -9.663312 168.799069 -1.491622 -0.000005 -0.000004 -1.091018 -19.588479 1.215119 0.761913 0.000003 0.000002 -0.325155 70.229207 -6.873811 -2.088262 25.456957 7.355625 -0.000005 
55.300201 -45.711708 121.720993 1.072788 3.251931 8.409449 -0.883835 -0.682153 -0.020101 2.234954 -1.364052 -0.044601 3.880222 -1.364486 -0.028259 9.337796 -13.536735 -2.211231 -5.922577 10.442203 -1.730516 -24.010444 -67.417922 -28.103425 10.165140 -95.658575 38.332719 0.000000 0.000003 -0.000000 0.052148 -6.591130 -0.418833 -0.000004 0.000026 -3.046369 -5.000218 -7.999162 -0.000208 6.692172 53.489769 -8.704684 -348.752382 107.125186 324.065401 0.000002 -0.000001 -0.000010 -0.054846 5.845611 -0.041443 -0.000005 -0.000007 3.018999 -5.000198 7.999281 0.000202 -3.414946 -174.690394 1.879566 -179.999991 0.000005 -1.250001 164.030148 -5.682469 -1.523087 0.000000 0.000001 0.283100 67.497056 6.870175 2.268521 25.456955 -7.355614 -0.000003 -9.663453 168.785244 -1.485679 -0.000004 -0.000004 -1.091630 -19.635003 1.189771 0.759740 0.000004 0.000002 -0.326631 70.235873 -6.874083 -2.087198 25.456955 7.355623 -0.000002 
55.334297 -45.670517 121.572990 1.081580 3.250442 8.409117 -0.889997 -0.682021 -0.020469 2.222630 -1.363784 -0.044835 3.867898 -1.364227 -0.028497 9.441351 -13.511301 -2.189441 -5.996684 10.427194 -1.715443 -24.004211 -67.384836 -28.097377 10.579798 -95.714023 38.723501 0.000002 0.000003 -0.000001 0.052724 -6.616360 -0.411094 -0.000003 0.000025 -3.045063 -5.000216 -7.999163 -0.000209 6.687784 53.574990 -8.684904 -348.375465 107.115125 323.868856 0.000002 -0.000001 -0.000009 0.046888 6.058147 -0.056750 -0.000003 -0.000005 3.016592 -5.000199 7.999283 0.000203 -3.397286 -174.682307 1.878999 -179.999991 0.000005 -1.251996 163.991257 -5.664066 -1.522997 -0.000000 0.000000 0.282884 67.506981 6.870397 2.266647 25.456957 -7.355616 -0.000002 -9.669578 168.770641 -1.482778 -0.000005 -0.000004 -1.092249 -19.682566 1.169869 0.758367 0.000002 0.000003 -0.328047 70.242553 -6.874354 -2.086032 25.456959 7.355623 -0.000002 
